<?xml version="1.0" encoding="utf-8"?>
<!-- Generator: Adobe Illustrator 25.4.1, SVG Export Plug-In . SVG Version: 6.00 Build 0)  -->
<svg width="47" height="59" version="1.1" id="Layer_1" xmlns="http://www.w3.org/2000/svg" xmlns:xlink="http://www.w3.org/1999/xlink" x="0px" y="0px"
	 viewBox="0 0 47 59" style="enable-background:new 0 0 47 59;" xml:space="preserve">
<style type="text/css">
	.st0{fill:#FFFFFF;}
</style>
<g id="Layer_1_00000175322513395204734810000007115859909503170997_">
	<g>
		<path class="st0" d="M45.4,28.7c-2-1.2-4.1-0.6-5.4-0.1c0-0.4,0-0.8,0-1.2h0c0,0,0,0,0-0.1c0-2.1-3.3-4-8.3-5.2
			c3.2,1,5.1,2.4,5.1,4c0,3.2-8,5.7-17.8,5.7S1.1,29.3,1.1,26.2c0-0.4,0.1-0.8,0.4-1.2c-1,0.8-1.5,1.6-1.5,2.4c0,0.2,0,0.3,0.1,0.5
			c0,0,0,0,0,0c0,0.1,0,0.2,0,0.3c0.1,8.5,3.5,16,8.9,20.1C5,43.8,2.5,37.4,2.2,30.3c3.3,2.1,10.1,3.5,17.9,3.5
			c7.3,0,13.7-1.2,17.2-3.1c-0.7,6.3-3.4,11.8-7.3,15.5c-3.4,3.3-7.6,5.3-12.2,5.3c-2.2,0-4.3-0.5-6.3-1.3c2.6,1.6,5.6,2.5,8.7,2.5
			c9.5,0,17.5-8.4,19.5-19.6c0.3-1.7,2-2.8,3.7-2.3c0.8,0.2,1.4,0.8,1.5,1.9c0.6,5.2-6.6,11.3-6.6,11.3
			C45.3,40.6,49.4,31.2,45.4,28.7z"/>
		<path class="st0" d="M32.9,50.7c2.1,0.7,3.4,1.6,3.4,2.6c0,2.5-8.8,4.6-19.5,4.6c-5.2,0-10-0.5-13.5-1.3c3.5,1.2,9.5,2,16.2,2
			C30.2,58.6,39,56.6,39,54C39,52.7,36.7,51.5,32.9,50.7z"/>
		<path class="st0" d="M16.8,7.7c0.3,0.7,0.8,1.4,1.3,2c0.5,0.7,1.1,1.3,1.7,2c0.6,0.7,1.3,1.4,1.9,2.1c0.6,0.7,1.2,1.5,1.7,2.4
			c0.5,0.8,0.9,1.7,1.1,2.6c0.1,0.2,0.1,0.4,0.1,0.6l0,0.1l0,0.1c0,0.1,0,0.1,0,0.2c0,0.1,0,0.2,0,0.3c0,0.4,0,0.8-0.1,1.2
			c-0.1,0.8-0.4,1.5-0.8,2.1c-0.1,0.1-0.1,0.1-0.2,0.2c-0.1,0.1-0.1,0.1-0.2,0.2c-0.1,0.1-0.1,0.1-0.2,0.2c0,0-0.1,0.1-0.1,0.1
			c0,0-0.1,0.1-0.1,0.1c-0.1,0.1-0.1,0.1-0.2,0.2c-0.1,0.1-0.1,0.1-0.2,0.1c-0.1,0.1-0.3,0.2-0.4,0.3c-0.6,0.3-1.1,0.6-1.7,0.7
			c-0.5,0.2-1,0.3-1.3,0.4c-0.4,0.1-0.7,0.1-0.9,0.1c-0.1,0-0.2,0-0.2,0c-0.1,0-0.1,0-0.1,0s0,0,0.1,0c0.1,0,0.1,0,0.2,0.1
			c0.2,0,0.5,0.1,0.9,0.1c0.4,0,0.9-0.1,1.4-0.2c0.3,0,0.6-0.1,0.9-0.2c0.3-0.1,0.7-0.2,1-0.3c0.2-0.1,0.4-0.1,0.5-0.2
			c0.1,0,0.2-0.1,0.3-0.1c0.1-0.1,0.2-0.1,0.3-0.2c0,0,0.1-0.1,0.1-0.1c0,0,0.1-0.1,0.1-0.1c0.1-0.1,0.2-0.1,0.3-0.2
			c0.1-0.1,0.2-0.2,0.2-0.2c0.1-0.1,0.2-0.2,0.2-0.3c0.6-0.7,1.1-1.6,1.3-2.6c0.1-0.5,0.2-1,0.2-1.6c0-0.1,0-0.3,0-0.4
			c0-0.1,0-0.1,0-0.2l0-0.1l0-0.1c0-0.3-0.1-0.5-0.1-0.8c-0.2-1.1-0.6-2.2-1.2-3.2c-0.6-1-1.3-1.9-2-2.6c-0.7-0.8-1.4-1.4-2.1-2.1
			c-0.7-0.6-1.3-1.2-1.9-1.8c-0.6-0.6-1.1-1.1-1.4-1.6c-0.2-0.3-0.3-0.5-0.4-0.8c-0.1-0.3-0.2-0.5-0.2-0.8c0-0.3-0.1-0.5,0-0.7
			c0-0.1,0-0.2,0-0.3c0-0.1,0-0.2,0.1-0.3c0.1-0.4,0.2-0.6,0.3-0.8c0.1-0.1,0.1-0.1,0.1-0.2c0,0,0-0.1,0-0.1s0,0-0.1,0
			c0,0-0.1,0.1-0.2,0.2c-0.2,0.1-0.4,0.4-0.6,0.7c0,0.1-0.1,0.2-0.1,0.3c0,0.1-0.1,0.2-0.1,0.3c-0.1,0.2-0.1,0.5-0.1,0.8
			c0,0.3,0,0.6,0.1,1C16.6,7,16.7,7.3,16.8,7.7z"/>
		<path class="st0" d="M10.2,8.8c0,0.1,0,0.3,0.1,0.4c0,0.3,0.1,0.5,0.2,0.7c0,0.1,0.1,0.2,0.1,0.4c0,0.1,0.1,0.2,0.1,0.4
			c0.1,0.1,0.1,0.2,0.2,0.4c0,0.1,0.1,0.1,0.1,0.2c0,0.1,0.1,0.1,0.1,0.2c0.1,0.1,0.1,0.2,0.2,0.4c0.1,0.1,0.1,0.2,0.2,0.3l0.1,0.2
			l0.1,0.2c0.1,0.1,0.1,0.2,0.2,0.3c0.6,0.9,1.3,1.6,2,2.3c0.7,0.7,1.4,1.2,2,1.8c0.7,0.6,1.3,1,1.8,1.5c0.3,0.2,0.5,0.5,0.7,0.8
			c0,0,0,0.1,0.1,0.1c0,0,0,0.1,0.1,0.1c0,0,0,0.1,0.1,0.1c0,0,0,0.1,0.1,0.1c0,0,0,0.1,0.1,0.1c0,0,0,0.1,0.1,0.1
			c0,0,0,0.1,0.1,0.1c0,0,0,0.1,0,0.1c0.1,0.2,0.2,0.5,0.3,0.8c0,0,0,0.1,0,0.1c0,0,0,0.1,0,0.1c0,0.1,0,0.1,0,0.2
			c0,0.1,0,0.2,0,0.4c0,0.5,0,0.9,0,1.3c-0.1,0.3-0.1,0.6-0.2,0.8c0,0.1-0.1,0.2-0.1,0.2c0,0,0,0.1,0,0.1s0,0,0-0.1
			c0,0,0.1-0.1,0.1-0.2c0.1-0.2,0.3-0.4,0.4-0.7c0.2-0.3,0.3-0.8,0.4-1.3c0-0.1,0-0.3,0-0.4c0-0.1,0-0.1,0-0.2c0,0,0-0.1,0-0.1
			c0,0,0-0.1,0-0.1c0-0.3-0.1-0.6-0.2-1c0,0,0-0.1,0-0.1c0,0,0-0.1,0-0.1c0,0,0-0.1-0.1-0.1c0,0,0-0.1-0.1-0.1s0-0.1-0.1-0.1
			c0,0,0-0.1-0.1-0.1c0,0,0-0.1-0.1-0.1c0,0,0-0.1-0.1-0.1c-0.2-0.3-0.4-0.7-0.6-1c-0.5-0.6-1.1-1.3-1.6-1.9c-1.2-1.2-2.5-2.5-3.6-4
			c-0.1-0.1-0.1-0.2-0.2-0.3l-0.1-0.1L13,11.1C13,11,12.9,11,12.8,10.9c-0.1-0.1-0.1-0.2-0.2-0.3l-0.1-0.1l-0.1-0.1
			c0-0.1-0.1-0.2-0.1-0.3c0-0.1-0.1-0.2-0.1-0.3c0-0.1-0.1-0.2-0.1-0.3C12.1,9,12,8.7,11.9,8.3c-0.1-0.4-0.1-0.8-0.1-1.2
			c0-0.4,0-0.8,0.1-1.1c0.1-0.4,0.1-0.7,0.2-1c0.1-0.3,0.2-0.7,0.3-1c0.1-0.2,0.1-0.3,0.2-0.4c0.1-0.1,0.1-0.3,0.2-0.4
			c0.3-0.5,0.6-1,1-1.3c0.3-0.4,0.7-0.6,0.9-0.9c0,0,0.1-0.1,0.1-0.1c0,0,0.1,0,0.1-0.1c0.1,0,0.1-0.1,0.2-0.1
			c0.1-0.1,0.2-0.1,0.3-0.2c0.2-0.1,0.3-0.1,0.3-0.1s-0.1,0-0.3,0.1c-0.1,0-0.2,0.1-0.3,0.1c-0.1,0-0.1,0-0.2,0.1c0,0-0.1,0-0.1,0
			c0,0-0.1,0-0.1,0.1c-0.3,0.1-0.8,0.3-1.2,0.7c-0.4,0.3-0.9,0.7-1.4,1.2C12,2.7,11.9,2.9,11.8,3c-0.1,0.1-0.2,0.3-0.3,0.5
			c-0.2,0.3-0.4,0.7-0.6,1c-0.2,0.4-0.3,0.8-0.4,1.2c-0.1,0.4-0.2,0.9-0.3,1.3c0,0.5-0.1,1,0,1.4C10.2,8.6,10.2,8.7,10.2,8.8z"/>
	</g>
</g>
</svg>
